<?xml version="1.0" encoding="UTF-8" standalone="no"?>
<!-- Created with Inkscape (http://www.inkscape.org/) -->

<svg
   xmlns:dc="http://purl.org/dc/elements/1.1/"
   xmlns:cc="http://creativecommons.org/ns#"
   xmlns:rdf="http://www.w3.org/1999/02/22-rdf-syntax-ns#"
   xmlns:svg="http://www.w3.org/2000/svg"
   xmlns="http://www.w3.org/2000/svg"
   xmlns:sodipodi="http://sodipodi.sourceforge.net/DTD/sodipodi-0.dtd"
   xmlns:inkscape="http://www.inkscape.org/namespaces/inkscape"
   width="744.09448819"
   height="1052.3622047"
   id="svg2"
   version="1.1"
   inkscape:version="0.48.4 r9939"
   sodipodi:docname="New document 1">
  <defs
     id="defs4" />
  <sodipodi:namedview
     id="base"
     pagecolor="#ffffff"
     bordercolor="#666666"
     borderopacity="1.0"
     inkscape:pageopacity="0.0"
     inkscape:pageshadow="2"
     inkscape:zoom="0.98994949"
     inkscape:cx="292.57866"
     inkscape:cy="913.91445"
     inkscape:document-units="px"
     inkscape:current-layer="layer1"
     showgrid="false"
     inkscape:window-width="1427"
     inkscape:window-height="738"
     inkscape:window-x="211"
     inkscape:window-y="58"
     inkscape:window-maximized="0" />
  <metadata
     id="metadata7">
    <rdf:RDF>
      <cc:Work
         rdf:about="">
        <dc:format>image/svg+xml</dc:format>
        <dc:type
           rdf:resource="http://purl.org/dc/dcmitype/StillImage" />
        <dc:title></dc:title>
      </cc:Work>
    </rdf:RDF>
  </metadata>
  <g
     inkscape:groupmode="layer"
     id="layer2"
     inkscape:label="Layer" />
  <g
     inkscape:label="Layer 1"
     inkscape:groupmode="layer"
     id="layer1">
    <g
       id="g3834"
       transform="translate(-2.0203048,-521.23871)">
      <rect
         ry="0"
         y="539.20471"
         x="192.93913"
         height="306.07623"
         width="385.87827"
         id="rect3820"
         style="fill:#ffffff;fill-opacity:1;stroke:#000000;stroke-opacity:1" />
      <path
         inkscape:connector-curvature="0"
         id="path3030"
         d="M 420.22346,710.93062 261.62951,631.12857 c 0,0 -16.16244,-3.03046 -22.22336,10.10153 -6.06091,13.13198 6.06092,22.22335 6.06092,22.22335 l 165.66502,83.84266 c 0,0 12.12183,10.10153 25.25381,1.01016 13.13198,-9.09138 -16.16244,-37.37565 -16.16244,-37.37565 z"
         style="fill:#e2e4fc;fill-opacity:1;stroke:none" />
      <path
         inkscape:connector-curvature="0"
         id="path3800"
         d="m 419.21331,738.20474 71.72083,-165.66502 c 0,0 10.10152,-14.14213 22.22335,-7.07106 12.12183,7.07106 15.15229,20.20305 15.15229,20.20305 l -74.75129,163.64471 c 0,0 -15.15229,14.14213 -24.24366,6.06091 -9.09137,-8.08122 -10.10152,-17.17259 -10.10152,-17.17259 z"
         style="fill:#e2fce8;fill-opacity:1;stroke:none" />
      <path
         inkscape:connector-curvature="0"
         id="path3802"
         d="M 422.24376,734.16413 276.7818,773.56008 c 0,0 -16.16244,22.22336 -3.03046,35.35534 13.13198,13.13198 38.3858,2.0203 38.3858,2.0203 l 137.38074,-56.56854 c 0,0 0,-4.04061 -2.0203,-17.17259 -2.02031,-13.13198 -25.25382,-3.03046 -25.25382,-3.03046 z"
         style="fill:#fae2fc;fill-opacity:1;stroke:none" />
      <text
         sodipodi:linespacing="125%"
         id="text3804"
         y="587.69202"
         x="317.1879"
         style="font-size:12px;font-style:normal;font-weight:normal;line-height:125%;letter-spacing:0px;word-spacing:0px;fill:#000000;fill-opacity:1;stroke:none;font-family:Sans"
         xml:space="preserve"><tspan
           y="587.69202"
           x="317.1879"
           id="tspan3806"
           sodipodi:role="line">Transform widget</tspan></text>
      <text
         sodipodi:linespacing="125%"
         id="text3808"
         y="634.15906"
         x="370.72595"
         style="font-size:12px;font-style:normal;font-weight:normal;line-height:125%;letter-spacing:0px;word-spacing:0px;fill:#000000;fill-opacity:1;stroke:none;font-family:Sans"
         xml:space="preserve"><tspan
           y="634.15906"
           x="370.72595"
           id="tspan3810"
           sodipodi:role="line">visualization</tspan></text>
      <path
         sodipodi:nodetypes="cc"
         inkscape:connector-curvature="0"
         id="path3812"
         d="m 438.40621,630.11842 27.27411,8.08122"
         style="fill:none;stroke:#000000;stroke-width:1;stroke-linecap:butt;stroke-linejoin:miter;stroke-miterlimit:4;stroke-opacity:1;stroke-dasharray:2, 1;stroke-dashoffset:0" />
      <text
         sodipodi:linespacing="125%"
         id="text3814"
         y="654.36206"
         x="363.65491"
         style="font-size:12px;font-style:normal;font-weight:normal;line-height:125%;letter-spacing:0px;word-spacing:0px;fill:#000000;fill-opacity:1;stroke:none;font-family:Sans"
         xml:space="preserve"><tspan
           y="654.36206"
           x="363.65491"
           id="tspan3816"
           sodipodi:role="line">hit volumes</tspan></text>
      <path
         inkscape:connector-curvature="0"
         id="path3818"
         d="m 403.05087,659.41284 35.35533,37.37565"
         style="fill:none;stroke:#000000;stroke-width:1;stroke-linecap:butt;stroke-linejoin:miter;stroke-miterlimit:4;stroke-opacity:1;stroke-dasharray:2, 1;stroke-dashoffset:0" />
      <path
         inkscape:connector-curvature="0"
         id="path2985"
         d="m 349.51279,745.27581 -58.58885,63.63961 c 0,0 62.62946,-17.1726 69.70052,-20.20305 7.07107,-3.03046 22.22336,-12.12183 13.13199,-29.29443 -9.09138,-17.17259 -24.24366,-14.14213 -24.24366,-14.14213 z"
         style="fill:none;stroke:#000000;stroke-width:1px;stroke-linecap:butt;stroke-linejoin:miter;stroke-opacity:1" />
      <path
         inkscape:connector-curvature="0"
         id="path2985-1"
         d="m 321.85785,655.43582 -86.50148,0.38393 c 0,0 55.20572,34.20053 62.23842,37.31896 7.03272,3.11843 24.00599,8.03299 30.4008,-10.31524 6.39479,-18.34824 -6.13774,-27.38765 -6.13774,-27.38765 z"
         style="fill:none;stroke:#000000;stroke-width:1px;stroke-linecap:butt;stroke-linejoin:miter;stroke-opacity:1" />
      <path
         inkscape:connector-curvature="0"
         id="path2985-1-7"
         d="m 504.19272,656.48303 10.46714,-85.86671 c 0,0 -40.8538,50.48084 -44.82958,57.06694 -3.97577,6.58611 -10.98013,22.80906 6.42128,31.45441 17.40143,8.64533 27.94116,-2.65464 27.94116,-2.65464 z"
         style="fill:none;stroke:#000000;stroke-width:1px;stroke-linecap:butt;stroke-linejoin:miter;stroke-opacity:1" />
      <path
         inkscape:connector-curvature="0"
         id="path3023"
         d="m 476.792,659.41284 -37.37565,82.83251"
         style="fill:none;stroke:#000000;stroke-width:1px;stroke-linecap:butt;stroke-linejoin:miter;stroke-opacity:1" />
      <path
         inkscape:connector-curvature="0"
         id="path3025"
         d="m 322.23866,658.40269 c 0,0 -9.09137,0 -13.13198,14.14214 -4.04061,14.14213 3.03046,24.24366 3.03046,24.24366"
         style="fill:none;stroke:#000000;stroke-width:1px;stroke-linecap:butt;stroke-linejoin:miter;stroke-opacity:1" />
      <path
         inkscape:connector-curvature="0"
         id="path3027"
         d="m 320.21836,674.56513 119.198,65.65992 -61.61931,20.20305"
         style="fill:none;stroke:#000000;stroke-width:1px;stroke-linecap:butt;stroke-linejoin:miter;stroke-opacity:1" />
    </g>
  </g>
</svg>
